<svg xmlns="http://www.w3.org/2000/svg" width="52.799" height="44.688" viewBox="0 0 52.799 44.688">
  <g id="ios-log-out" transform="translate(-6.094 -10.156)">
    <path id="Path_1" data-name="Path 1" d="M39.609,47.227A1.782,1.782,0,0,0,37.832,49a2.291,2.291,0,0,1-2.285,2.285H11.934A2.291,2.291,0,0,1,9.649,49V16a2.291,2.291,0,0,1,2.285-2.285H35.547A2.291,2.291,0,0,1,37.832,16a1.777,1.777,0,0,0,3.554,0,5.84,5.84,0,0,0-5.84-5.84H11.934A5.84,5.84,0,0,0,6.094,16V49a5.84,5.84,0,0,0,5.84,5.84H35.547A5.84,5.84,0,0,0,41.387,49a1.782,1.782,0,0,0-1.777-1.777Z" fill="#fff"/>
    <path id="Path_2" data-name="Path 2" d="M47.341,20.071a1.766,1.766,0,0,0-1.257-.521,1.735,1.735,0,0,0-1.257.521,1.771,1.771,0,0,0,0,2.514l8.277,8.15H20.566a1.777,1.777,0,1,0,0,3.554H53.142l-8.074,8.139a1.793,1.793,0,0,0,0,2.514l.013.013a1.838,1.838,0,0,0,1.244.495,1.716,1.716,0,0,0,1.257-.521L58.068,34.468a2.495,2.495,0,0,0,0-3.707L47.34,20.072Z" fill="#fff"/>
  </g>
</svg>
